<?xml version="1.0" standalone="no"?>
<!DOCTYPE svg PUBLIC "-//W3C//DTD SVG 20010904//EN"
 "http://www.w3.org/TR/2001/REC-SVG-20010904/DTD/svg10.dtd">
<svg version="1.0" xmlns="http://www.w3.org/2000/svg"
 width="894.000000pt" height="248.000000pt" viewBox="0 0 894.000000 248.000000"
 preserveAspectRatio="xMidYMid meet">

<g transform="translate(0.000000,248.000000) scale(0.100000,-0.100000)"
fill="#000000" stroke="none">
<path d="M0 1240 l0 -1240 4470 0 4470 0 0 1240 0 1240 -4470 0 -4470 0 0
-1240z m1156 913 c7 -10 14 -32 14 -50 1 -113 60 -286 103 -302 52 -20 67 -55
67 -158 0 -91 1 -94 20 -88 38 12 50 -11 50 -96 0 -69 -2 -80 -21 -89 -11 -7
-27 -9 -35 -6 -11 4 -14 -9 -14 -73 0 -61 3 -80 15 -85 22 -8 22 -254 0 -262
-12 -5 -15 -26 -15 -103 -1 -106 -9 -125 -63 -151 -22 -10 -39 -31 -55 -64
-25 -50 -52 -174 -52 -232 0 -21 -8 -42 -20 -54 -19 -19 -33 -20 -278 -20
-234 0 -260 2 -274 18 -8 9 -22 64 -31 121 -20 124 -52 199 -98 232 -19 13
-39 30 -46 39 -9 11 -12 137 -13 514 l0 499 54 52 c61 58 84 115 106 260 19
126 -11 115 302 115 246 0 272 -2 284 -17z m6411 -165 c47 -51 35 -157 -32
-293 -46 -93 -105 -169 -223 -289 -166 -168 -320 -283 -523 -390 -58 -31 -113
-64 -121 -74 -25 -28 -69 -161 -75 -228 -14 -151 69 -203 215 -134 85 40 128
70 334 236 183 148 217 166 274 147 73 -24 80 -104 16 -175 -47 -51 -100 -78
-174 -86 -70 -8 -88 -25 -73 -68 17 -48 58 -69 133 -69 58 0 79 6 152 41 98
47 135 76 318 243 109 99 138 121 163 121 40 0 89 -48 89 -87 0 -36 -25 -73
-51 -73 -23 0 -25 22 -4 40 21 17 19 44 -5 65 -42 38 -90 -16 -77 -85 10 -49
68 -178 83 -184 28 -11 304 126 453 225 68 45 101 55 101 30 0 -17 -221 -152
-347 -212 -196 -92 -196 -92 -220 -139 -29 -57 -51 -80 -91 -97 -30 -12 -37
-12 -58 2 -45 30 -25 83 45 120 32 16 51 43 51 71 0 10 -17 60 -37 110 l-37
92 -85 -80 c-103 -96 -211 -171 -306 -212 -87 -38 -200 -43 -251 -12 -62 37
-80 113 -49 201 8 21 13 40 12 42 -2 1 -39 -27 -82 -63 -178 -146 -304 -214
-397 -214 -50 0 -62 4 -93 31 -58 51 -69 147 -30 275 7 25 10 44 7 42 -4 -2
-47 -24 -97 -49 -49 -26 -133 -63 -185 -84 -140 -55 -166 -70 -191 -112 -62
-99 -125 -143 -214 -145 -62 -2 -85 12 -85 51 0 47 63 89 194 131 80 26 100
50 98 121 -1 70 -20 103 -59 107 -73 7 -163 -68 -234 -197 -24 -44 -49 -81
-55 -81 -32 -1 -33 27 -9 135 14 61 25 111 25 114 0 2 -39 -34 -87 -80 -163
-157 -305 -249 -386 -249 -31 0 -46 7 -73 34 -29 29 -34 41 -34 79 0 24 7 64
15 87 29 83 19 81 -91 -21 -106 -98 -208 -168 -257 -176 -31 -5 -40 -1 -68 26
-28 29 -31 37 -26 76 l5 45 -27 -20 c-142 -110 -210 -144 -289 -145 -58 0 -66
3 -88 28 -43 50 -31 148 31 248 47 76 46 95 -6 109 -22 6 -47 14 -55 17 -8 3
-14 0 -14 -5 0 -15 -182 -190 -267 -258 -88 -71 -193 -124 -245 -124 -32 0
-47 7 -74 34 -39 39 -44 80 -19 162 27 88 20 86 -93 -20 -102 -94 -201 -163
-249 -172 -62 -12 -110 44 -99 114 2 17 3 32 2 32 -2 0 -33 -20 -71 -44 -174
-115 -334 -136 -412 -54 -25 26 -28 37 -28 91 0 49 7 76 31 127 l31 66 -84
-34 c-61 -24 -105 -35 -161 -38 -110 -7 -118 -10 -143 -50 -52 -85 -168 -197
-217 -209 -18 -4 -43 3 -84 24 l-58 31 -57 -30 c-68 -37 -96 -38 -130 -4 -23
23 -25 31 -20 85 8 93 118 309 158 309 29 0 23 -22 -31 -111 -50 -82 -90 -175
-90 -207 0 -28 29 -62 54 -62 26 0 115 66 140 105 11 16 26 25 42 25 24 0 26
-3 19 -27 -10 -41 -9 -83 3 -95 30 -30 139 46 217 152 40 55 44 79 14 106 -39
35 -51 73 -47 142 4 58 8 68 36 93 38 34 88 38 122 11 33 -26 38 -100 12 -176
-23 -67 -20 -86 13 -86 55 0 335 95 387 132 84 59 190 11 174 -78 -9 -43 -65
-108 -120 -136 -23 -12 -68 -24 -100 -27 -73 -7 -88 -24 -64 -74 33 -68 121
-84 234 -42 93 35 180 96 316 222 103 95 125 110 177 126 82 23 144 22 192 -5
38 -21 41 -21 68 -5 21 12 31 13 39 5 20 -20 14 -44 -34 -137 -57 -113 -69
-189 -33 -215 67 -47 163 5 389 213 63 58 120 110 126 115 7 7 2 17 -18 34
-38 32 -38 90 0 163 28 55 97 112 149 125 37 10 84 -15 99 -52 12 -28 11 -39
-4 -80 -9 -26 -36 -68 -59 -95 -24 -26 -43 -52 -43 -58 0 -6 13 -17 30 -26 50
-26 55 -49 24 -103 -64 -110 -84 -156 -84 -195 0 -81 59 -99 165 -48 83 39
160 98 302 232 109 102 128 116 182 132 81 23 148 22 189 -3 39 -24 50 -25 74
-4 14 14 20 14 33 4 22 -19 19 -32 -31 -135 -29 -61 -47 -112 -51 -148 -5 -49
-3 -56 18 -71 68 -47 177 15 413 237 101 95 125 123 135 159 39 130 139 343
234 498 71 113 202 283 275 353 119 114 265 165 340 118 46 -29 72 -77 72
-131 0 -55 -38 -163 -82 -237 -93 -156 -398 -409 -727 -603 -84 -50 -111 -86
-111 -149 l0 -43 64 60 c70 65 139 98 181 88 39 -10 73 -49 80 -92 13 -72 26
-114 36 -114 21 0 218 83 327 138 l114 57 52 110 c85 180 134 268 226 408 186
283 391 499 531 561 19 8 57 15 85 15 40 1 55 -4 71 -21z"/>
<path d="M495 1748 c-46 -24 -45 -18 -45 -505 l0 -464 25 -24 24 -25 376 0
376 0 24 25 25 24 0 460 c0 253 -3 467 -6 476 -16 42 -45 45 -421 45 -240 -1
-365 -4 -378 -12z m140 -98 c11 -18 -6 -50 -26 -50 -22 0 -34 22 -25 45 6 17
42 20 51 5z m317 -7 c37 -33 9 -113 -40 -113 -33 0 -62 29 -62 62 0 59 60 89
102 51z m258 2 c10 -12 10 -18 0 -30 -25 -30 -61 -7 -46 30 3 8 12 15 19 15 8
0 20 -7 27 -15z m-130 -60 c0 -27 -17 -36 -42 -23 -22 11 -23 22 -3 42 21 20
45 10 45 -19z m-313 9 c3 -8 -2 -23 -11 -32 -15 -15 -17 -15 -32 0 -21 21 -11
48 16 48 11 0 23 -7 27 -16z m-116 -54 c37 -20 18 -80 -26 -80 -43 0 -58 39
-28 72 19 21 27 22 54 8z m543 -3 c12 -9 17 -23 14 -42 -3 -26 -8 -30 -35 -33
-27 -3 -35 1 -45 22 -9 22 -8 29 7 46 21 23 34 25 59 7z m-378 -45 c42 -27 35
-95 -11 -112 -43 -16 -85 13 -85 59 0 46 58 79 96 53z m237 -4 c9 -7 19 -25
22 -40 5 -21 1 -33 -19 -52 -31 -31 -45 -32 -80 -5 -29 23 -33 54 -10 87 17
25 60 30 87 10z m-402 -98 c37 -20 18 -80 -26 -80 -43 0 -58 39 -28 72 19 21
27 22 54 8z m543 -3 c12 -9 17 -23 14 -42 -3 -26 -8 -30 -35 -33 -27 -3 -35 1
-45 22 -9 22 -8 29 7 46 21 23 34 25 59 7z m-211 -58 c59 -63 12 -169 -74
-169 -28 0 -77 27 -89 49 -27 51 2 130 54 151 33 14 79 1 109 -31z m-438 -79
c0 -18 -6 -26 -21 -28 -26 -4 -40 24 -23 45 18 21 44 11 44 -17z m710 0 c0
-18 -6 -26 -21 -28 -26 -4 -40 24 -23 45 18 21 44 11 44 -17z m-521 -6 c20
-20 20 -68 0 -88 -8 -9 -28 -16 -44 -16 -54 0 -80 61 -43 102 20 22 66 24 87
2z m426 -16 c13 -25 13 -31 0 -55 -21 -38 -81 -45 -104 -11 -20 28 -20 48 0
76 23 34 83 27 104 -10z m-315 -118 c33 -12 49 -53 34 -83 -15 -28 -28 -37
-58 -37 -60 0 -82 72 -35 109 31 25 26 24 59 11z m180 -23 c8 -12 15 -29 15
-39 0 -28 -37 -58 -69 -58 -52 0 -81 69 -43 102 35 31 73 29 97 -5z m-367 -29
c7 -7 12 -21 12 -33 0 -47 -62 -63 -81 -21 -22 47 33 90 69 54z m540 0 c27
-27 7 -78 -29 -78 -21 0 -49 26 -49 45 0 35 53 58 78 33z m-437 -108 c19 -11
25 -45 11 -66 -13 -19 -39 -23 -61 -8 -27 20 -27 49 1 68 27 19 24 19 49 6z
m320 0 c26 -15 26 -66 -1 -80 -23 -12 -54 0 -64 25 -9 25 12 57 42 64 2 1 12
-4 23 -9z m-471 -55 c0 -29 -25 -39 -45 -19 -8 9 -15 17 -15 19 0 2 7 10 15
19 20 20 45 10 45 -19z m320 0 c0 -17 -30 -34 -47 -28 -7 3 -13 15 -13 28 0
13 6 25 13 28 17 6 47 -11 47 -28z m290 0 c0 -17 -30 -34 -47 -28 -7 3 -13 15
-13 28 0 13 6 25 13 28 17 6 47 -11 47 -28z"/>
<path d="M7423 1951 c-144 -68 -401 -356 -563 -630 -88 -150 -156 -288 -146
-298 18 -18 234 114 385 235 244 196 377 361 442 551 26 75 25 116 -6 146 -31
31 -37 31 -112 -4z"/>
<path d="M6488 1895 c-168 -62 -422 -398 -573 -759 -43 -103 -54 -146 -37
-146 14 0 271 168 369 241 54 40 152 127 219 194 105 104 126 131 164 207 34
69 44 100 48 156 4 66 3 72 -21 96 -22 22 -35 26 -79 25 -29 0 -70 -7 -90 -14z"/>
<path d="M4400 1183 c-47 -17 -130 -129 -130 -175 0 -37 37 -62 72 -49 28 10
90 77 112 120 35 68 5 126 -54 104z"/>
<path d="M2405 1025 c-19 -18 -25 -35 -25 -70 0 -56 23 -105 50 -105 42 0 76
129 46 175 -21 31 -40 32 -71 0z"/>
<path d="M2955 914 c-42 -21 -101 -81 -116 -115 -39 -95 129 -65 189 33 28 45
28 63 0 82 -28 20 -36 20 -73 0z"/>
<path d="M7335 912 c-38 -24 -101 -93 -110 -121 -18 -57 62 -66 135 -16 68 47
93 102 61 134 -26 26 -47 26 -86 3z"/>
<path d="M3581 899 c-58 -11 -145 -64 -187 -113 -45 -52 -84 -132 -84 -171 0
-67 46 -72 131 -14 80 54 258 226 265 256 13 49 -25 62 -125 42z"/>
<path d="M5073 899 c-96 -18 -203 -105 -248 -201 -40 -86 -31 -138 25 -138 56
0 350 259 350 308 0 37 -40 47 -127 31z"/>
<path d="M5909 578 c-69 -37 -80 -51 -50 -68 42 -22 142 26 172 81 9 17 6 19
-25 19 -19 0 -62 -14 -97 -32z"/>
<path d="M7870 531 c-26 -22 -32 -32 -24 -41 22 -22 95 34 79 60 -9 15 -18 12
-55 -19z"/>
</g>
</svg>
