<svg xmlns="http://www.w3.org/2000/svg" viewBox="0 0 38.03 475.41"><defs><style>.cls-1{fill:#f2a341;}</style></defs><g id="Layer_2" data-name="Layer 2"><g id="Layer_1-2" data-name="Layer 1"><path class="cls-1" d="M38,425.71,10.86,438.3l27.17,13v6.43L0,475.41v-8.48l27.17-12.48L0,441.65v-6.59l27.17-12.59L0,409.83V401.3l38,17.77Z"/><path class="cls-1" d="M38,397.53H0V357.45H6.86v31.28h7.62V359.12h6.91v29.61h9.73V357.45H38Z"/><path class="cls-1" d="M38,307.13,9.08,325.55l29,18.8v9.83L0,328.85v-6.48l38-25.18Z"/><path class="cls-1" d="M38,258,21.12,266.5v18.15H38v8.81H0V260.4c0-8.86,3.73-12.26,9.18-12.26h2.76c4.54,0,8.16,2.16,9.07,9l17-8.53ZM9.08,257c-1.52,0-2.22,1.18-2.22,3.4v24.25h7.4V260.4c0-2.32-.43-3.4-2.27-3.4Z"/><path class="cls-1" d="M38,198.17,9.08,216.59l29,18.8v9.83L0,219.89v-6.48l38-25.18Z"/><path class="cls-1" d="M38,184.5H0V152.79c0-8.64,3.13-11.94,8.21-11.94h3.46c3.67,0,5.45,1.78,6.32,4,.59-2.32,2-4.49,6.16-4.49h5.67c4.32,0,8.21,2.71,8.21,12.32ZM9.24,149.71c-1.84,0-2.38.86-2.38,3.08v22.9h8v-22.9c0-2.48-.65-3.08-2.76-3.08Zm15.39-.54c-2.05,0-2.86,1-2.86,3.62v22.9h9.35v-23c0-2.37-.76-3.51-2.7-3.51Z"/><path class="cls-1" d="M38,135.2H0v-8.91H31.12V96.2H38Z"/><path class="cls-1" d="M38,91.87H0V51.79H6.86V83.07h7.62V53.47h6.91v29.6h9.73V51.79H38Z"/><path class="cls-1" d="M38,46.13H31.12V12.32c0-2.49-.44-3.46-2.27-3.46H23.39c-1.73,0-2.32,1-2.32,3.46V35.06c0,8.91-3.73,12.32-9.24,12.32H9.24C3.73,47.38,0,44,0,35.06V2.16H6.86v32.9c0,2.32.59,3.51,2.32,3.51h2.7c1.63,0,2.33-1,2.33-3.51V12.32C14.21,3.4,17.93,0,23.44,0h5.3C34.25,0,38,3.4,38,12.32Z"/></g></g></svg>